<?xml version="1.0" encoding="UTF-8" standalone="no"?>
<svg
   version="1.0"
   width="660.000000pt"
   height="660.000000pt"
   viewBox="0 0 660.000000 660.000000"
   preserveAspectRatio="xMidYMid meet"
   id="svg287"
   sodipodi:docname="safari-pinned-tab.svg"
   inkscape:version="1.1.1 (c3084ef, 2021-09-22)"
   xmlns:inkscape="http://www.inkscape.org/namespaces/inkscape"
   xmlns:sodipodi="http://sodipodi.sourceforge.net/DTD/sodipodi-0.dtd"
   xmlns="http://www.w3.org/2000/svg"
   xmlns:svg="http://www.w3.org/2000/svg">
  <defs
     id="defs291" />
  <sodipodi:namedview
     id="namedview289"
     pagecolor="#ffffff"
     bordercolor="#666666"
     borderopacity="1.0"
     inkscape:pageshadow="2"
     inkscape:pageopacity="0.0"
     inkscape:pagecheckerboard="0"
     inkscape:document-units="pt"
     showgrid="false"
     inkscape:zoom="0.23373619"
     inkscape:cx="639.60998"
     inkscape:cy="335.84872"
     inkscape:window-width="1312"
     inkscape:window-height="847"
     inkscape:window-x="0"
     inkscape:window-y="25"
     inkscape:window-maximized="0"
     inkscape:current-layer="svg287" />
  <metadata
     id="metadata167">
Created by potrace 1.14, written by Peter Selinger 2001-2017
</metadata>
  <rect
     style="fill:#000080;stroke-width:0.679906"
     id="rect2176"
     width="658.93719"
     height="667.50061"
     x="4.2715716"
     y="2.125602" />
  <g
     transform="matrix(0.1,0,0,-0.1066658,3.2087438,669.62624)"
     fill="#add8e6"
     stroke="none"
     id="g285">
    <path
       d="m 453,4535 c 0,-8 4,-12 9,-9 4,3 8,9 8,15 0,5 -4,9 -8,9 -5,0 -9,-7 -9,-15 z"
       id="path169" />
    <path
       d="m 20,4486 c 0,-2 6,-9 13,-15 10,-8 14,-7 14,4 0,8 -6,15 -14,15 -7,0 -13,-2 -13,-4 z"
       id="path171" />
    <path
       d="m 930,4419 c 0,-17 4,-20 23,-15 12,3 26,6 31,6 5,0 3,7 -4,15 -19,23 -50,19 -50,-6 z"
       id="path173" />
    <path
       d="m 323,4366 c 0,-8 8,-12 21,-9 17,4 18,3 6,-6 -9,-7 -10,-11 -3,-11 6,0 14,4 18,10 3,5 13,6 23,3 9,-3 14,-3 11,1 -4,4 -19,9 -35,12 -15,3 -31,7 -34,9 -4,2 -7,-2 -7,-9 z"
       id="path175" />
    <path
       d="m 1404,4366 c -16,-13 -17,-17 -5,-28 12,-11 13,-11 6,2 -6,12 -5,13 5,3 11,-10 17,-10 29,0 12,10 13,9 6,-3 -8,-13 -7,-13 8,-1 18,14 24,37 8,26 -5,-3 -12,-1 -16,5 -8,14 -18,13 -41,-4 z"
       id="path177" />
    <path
       d="m 90,4316 c 0,-2 7,-7 16,-10 8,-3 12,-2 9,4 -6,10 -25,14 -25,6 z"
       id="path179" />
    <path
       d="m 2762,4305 c -23,-12 -23,-12 9,-19 34,-6 52,0 46,17 -5,15 -28,16 -55,2 z"
       id="path181" />
    <path
       d="m 437,4262 c -15,-17 -15,-20 -1,-38 8,-10 12,-13 8,-5 -7,15 7,13 50,-5 14,-5 17,-4 12,4 -4,8 0,12 11,12 17,1 17,1 -1,15 -10,8 -23,12 -29,8 -6,-3 -7,-1 -4,4 4,6 0,14 -9,17 -21,8 -19,9 -37,-12 z m 17,-7 c -4,-8 -11,-15 -16,-15 -6,0 -5,6 2,15 7,8 14,15 16,15 2,0 1,-7 -2,-15 z"
       id="path183" />
    <path
       d="m 2616,4263 c -4,-4 -16,-8 -29,-10 -12,-2 -26,-8 -31,-13 -13,-13 -16,-40 -5,-40 5,0 9,4 9,9 0,5 10,9 23,8 12,0 31,4 41,8 15,7 17,5 11,-6 -8,-12 -6,-12 8,0 9,7 18,10 18,5 1,-5 2,-13 4,-19 1,-5 3,-16 3,-22 1,-7 12,-13 25,-13 18,0 19,-2 7,-10 -8,-5 -10,-10 -4,-10 20,0 23,12 9,33 -11,15 -12,24 -3,34 8,10 6,13 -8,14 -18,0 -18,1 1,10 17,8 16,9 -6,4 -14,-2 -35,2 -46,10 -11,8 -23,11 -27,8 z"
       id="path185" />
    <path
       d="m 5446,4244 c -4,-9 -4,-19 -1,-22 7,-8 35,19 29,29 -8,14 -21,11 -28,-7 z"
       id="path187" />
    <path
       d="m 164,4232 c 6,-11 -5,-16 -26,-13 -4,0 -5,-6 -2,-14 4,-8 1,-15 -6,-15 -6,0 -9,-4 -6,-9 7,-11 -22,-23 -36,-14 -6,3 -8,1 -4,-5 9,-15 -18,-9 -40,8 -11,9 -15,10 -10,3 4,-8 1,-13 -9,-13 -10,0 -13,5 -9,12 4,6 3,8 -2,5 -6,-3 -11,-21 -12,-40 -3,-36 14,-52 38,-37 15,9 50,1 50,-12 0,-5 -5,-6 -12,-2 -7,4 -8,3 -4,-4 4,-6 13,-9 21,-6 9,4 12,0 10,-13 -2,-10 -4,-21 -4,-24 -1,-6 -11,-8 -66,-10 L 0,4028 V 2014 0 h 3300 3300 v 1700 c 0,1036 -4,1700 -9,1700 -6,0 -21,-4 -35,-10 -15,-5 -28,-5 -31,0 -3,5 -18,5 -35,0 -31,-9 -81,-40 -64,-40 5,0 16,6 24,13 12,10 12,9 0,-6 -8,-10 -14,-28 -15,-39 -1,-11 -8,-24 -15,-28 -11,-7 -11,-11 1,-26 12,-16 12,-17 -1,-9 -8,6 -18,10 -22,11 -5,1 -11,2 -14,3 -4,0 -1,8 6,16 7,8 11,15 9,16 -2,0 -15,2 -29,3 -40,4 -50,9 -81,39 -16,16 -34,25 -40,21 -8,-4 -9,-3 -5,5 4,6 5,20 1,30 -5,18 -9,19 -44,6 -35,-12 -40,-11 -55,7 -10,11 -24,17 -32,14 -8,-3 -12,-2 -9,3 3,5 -5,13 -17,17 -33,10 -89,55 -82,65 7,12 -3,11 -26,-1 -10,-5 -21,-23 -25,-39 -3,-16 -16,-37 -28,-48 -27,-24 -85,-45 -92,-33 -3,4 -16,7 -30,6 -13,-2 -22,0 -20,5 3,4 1,10 -4,13 -5,4 -12,2 -16,-4 -4,-7 -13,-5 -27,4 -11,8 -31,12 -44,10 -16,-3 -23,0 -22,8 2,7 -2,12 -8,11 -6,-1 -11,12 -10,30 1,21 6,31 14,29 8,-1 11,2 8,7 -7,10 -25,9 -43,-2 -6,-4 -15,-2 -19,5 -4,7 -4,10 1,6 4,-4 14,-3 22,3 7,6 13,8 13,4 0,-4 6,-3 13,3 19,16 10,78 -11,79 -10,1 -22,2 -27,4 -21,5 -43,-13 -38,-31 3,-10 -1,-21 -8,-25 -8,-6 -10,-4 -4,6 7,11 6,12 -6,2 -26,-21 -12,-77 15,-67 8,3 17,0 22,-7 4,-8 3,-10 -4,-5 -7,4 -12,2 -12,-3 0,-6 4,-11 9,-11 5,0 9,-11 9,-25 -1,-14 -3,-24 -5,-21 -3,3 -15,-4 -26,-15 -14,-13 -24,-16 -31,-9 -16,16 -44,12 -66,-10 -27,-27 -37,-25 -55,9 -11,23 -12,31 -2,35 8,3 7,5 -3,4 -8,-1 -28,4 -44,11 -16,6 -34,10 -40,8 -6,-2 -20,5 -31,15 -11,11 -21,14 -23,9 -3,-8 -10,-8 -23,-1 -11,7 -19,7 -19,1 0,-5 -12,-6 -27,-2 -20,6 -32,3 -41,-8 -10,-13 -12,-13 -10,-2 2,8 -5,16 -15,17 -9,1 -11,0 -4,-2 15,-5 11,-60 -6,-71 -6,-3 -7,-1 -3,6 6,8 0,11 -18,8 -15,-2 -26,-6 -26,-10 0,-4 0,-13 0,-19 0,-7 5,-5 11,6 8,12 14,15 18,7 4,-6 25,-13 46,-15 33,-2 35,-1 19,11 -10,7 -13,13 -7,13 6,0 23,-14 37,-31 21,-24 24,-34 15,-45 -6,-8 -8,-14 -5,-14 4,0 2,-9 -4,-21 -6,-11 -19,-19 -28,-18 -18,2 -45,-6 -76,-22 -14,-8 -16,-8 -10,3 6,10 5,11 -8,1 -8,-7 -18,-10 -21,-6 -4,3 -13,1 -20,-6 -8,-6 -21,-9 -28,-7 -8,3 -27,7 -44,10 -40,6 -85,24 -84,33 4,21 -2,33 -17,33 -9,0 -12,5 -8,12 5,8 0,9 -15,5 -13,-3 -24,0 -27,7 -3,7 -18,11 -35,10 -19,-1 -29,2 -26,9 2,7 -9,20 -25,30 -34,20 -39,21 -35,5 1,-7 -4,-13 -10,-14 -7,-1 -16,-3 -20,-4 -5,-1 -12,-2 -17,-1 -5,1 -3,-5 4,-14 8,-9 22,-14 32,-12 21,6 34,-8 17,-19 -9,-5 -7,-11 6,-21 11,-7 13,-13 6,-13 -7,0 -9,-5 -5,-12 4,-7 4,-10 -1,-6 -4,4 -13,3 -20,-2 -8,-7 -12,-5 -12,5 0,8 4,12 8,9 4,-2 10,0 13,5 4,5 1,13 -5,16 -12,8 -20,2 -23,-17 -1,-7 -6,-19 -10,-27 -6,-10 -5,-12 2,-7 7,4 12,4 12,-1 0,-4 15,-8 33,-9 36,-1 88,-32 83,-49 -1,-5 -12,-15 -24,-21 -12,-6 -20,-13 -17,-15 4,-4 -13,-8 -52,-11 -9,-1 -9,-7 -1,-22 10,-18 9,-19 -4,-8 -13,10 -18,9 -28,-3 -9,-11 -16,-12 -25,-5 -7,6 -23,13 -35,15 -30,6 -36,13 -16,20 9,3 24,8 34,12 9,3 21,5 26,4 5,-1 3,5 -4,14 -11,13 -11,16 0,13 24,-5 21,27 -5,56 -20,22 -28,25 -44,16 -25,-13 -34,-13 -26,0 9,15 -2,12 -20,-6 -16,-17 -45,-13 -45,7 0,6 7,8 16,5 8,-3 12,-2 9,4 -3,6 3,11 14,11 12,1 26,3 31,4 6,1 16,3 23,4 7,1 8,4 2,9 -5,4 -17,16 -25,26 -13,18 -13,19 0,11 12,-6 12,-5 3,5 -6,6 -27,13 -46,14 -31,3 -35,0 -32,-21 1,-13 -2,-26 -7,-29 -4,-3 -6,-10 -3,-15 3,-5 0,-6 -8,-3 -8,3 -18,0 -22,-5 -3,-6 -10,-9 -13,-7 -4,2 -8,-16 -9,-41 -1,-58 -21,-72 -45,-32 -22,36 -43,37 -60,2 -11,-22 -20,-28 -42,-26 -16,1 -30,4 -33,6 -9,10 -11,47 -2,52 5,4 7,11 4,16 -4,5 -1,9 6,9 7,0 2,11 -11,25 -13,14 -30,23 -38,20 -12,-4 -12,-2 -4,8 12,14 6,27 -12,27 -6,0 -4,-5 4,-10 8,-5 10,-10 4,-10 -15,0 -36,25 -28,33 3,3 -3,3 -14,0 -12,-3 -22,-14 -24,-25 -3,-17 -20,-30 -80,-59 -17,-9 -30,12 -37,59 -1,11 -41,28 -61,27 -8,-1 -29,9 -47,22 -35,25 -50,23 -98,-12 -16,-12 -38,-21 -47,-19 -10,1 -18,-2 -18,-7 0,-5 -7,-9 -15,-9 -11,0 -12,-5 -5,-26 13,-33 13,-37 -2,-28 -10,6 -10,5 0,-8 10,-12 10,-17 0,-26 -23,-18 -62,-18 -81,1 -10,10 -21,16 -26,13 -4,-3 -8,1 -8,9 0,12 3,12 16,3 9,-7 5,0 -8,15 -14,15 -21,27 -16,27 4,0 -5,10 -21,23 -16,12 -33,22 -38,22 -5,0 -14,15 -21,34 -12,36 -29,49 -39,32 -4,-6 -14,-8 -24,-5 -9,3 -6,-2 8,-10 16,-10 19,-15 10,-16 -13,0 -13,-1 0,-10 13,-9 13,-10 0,-10 -12,-1 -12,-3 2,-11 9,-5 15,-16 12,-23 -3,-7 2,-16 11,-20 9,-3 13,-2 10,4 -3,6 1,7 9,4 9,-3 14,-10 11,-14 -3,-5 3,-13 12,-19 10,-6 14,-11 9,-11 -5,0 -2,-8 5,-17 12,-15 12,-16 -8,-11 -17,5 -21,2 -18,-14 4,-18 2,-19 -16,-6 -11,7 -21,18 -21,23 -1,6 -8,16 -17,23 -14,11 -14,11 3,6 16,-6 17,-4 7,14 -7,12 -14,22 -17,22 -3,0 -3,-4 0,-9 4,-5 -5,-4 -19,2 -14,7 -25,15 -25,19 0,4 -9,5 -20,3 -12,-2 -18,0 -15,6 4,5 11,7 16,4 5,-4 9,-3 9,0 0,9 -62,60 -74,61 -6,1 -13,3 -16,4 -19,9 -47,5 -47,-7 0,-9 4,-10 11,-3 21,21 24,9 3,-14 -12,-13 -25,-22 -29,-20 -4,3 -6,29 -4,59 3,46 1,55 -13,55 -10,0 -12,3 -5,8 6,4 12,27 12,52 1,24 7,49 13,55 9,7 10,6 4,-4 -5,-9 -4,-12 2,-8 6,4 13,-4 15,-18 3,-14 1,-25 -4,-25 -5,0 -6,-5 -3,-10 4,-6 11,-7 17,-4 7,5 8,2 2,-7 -12,-20 -14,-40 -3,-33 5,3 7,10 3,15 -3,6 0,10 7,8 29,-3 50,1 44,11 -3,6 2,10 12,11 11,0 13,3 5,6 -10,4 -10,8 0,21 7,9 8,13 2,9 -7,-4 -32,4 -57,17 -25,14 -48,22 -51,19 -3,-4 -6,-1 -6,5 0,7 0,15 0,20 0,11 -52,22 -66,14 -13,-7 -14,-11 -14,-35 0,-22 -33,-54 -50,-49 -9,2 -7,-2 5,-12 11,-8 16,-16 11,-16 -6,0 -1,-7 10,-15 18,-15 18,-15 0,-8 -14,5 -17,3 -11,-7 5,-9 4,-11 -4,-6 -6,4 -9,12 -6,17 4,5 1,9 -4,9 -6,0 -11,-5 -11,-11 0,-8 -6,-7 -17,2 -11,9 -14,10 -9,2 5,-9 2,-11 -8,-7 -9,3 -14,10 -11,15 3,4 -4,13 -15,19 -11,6 -18,15 -15,19 7,12 -55,36 -63,25 -10,-14 -66,-11 -75,4 -5,7 -13,10 -18,6 -5,-3 -9,-2 -8,3 4,16 -14,44 -33,54 -15,8 -19,8 -14,0 4,-6 1,-11 -6,-11 -10,0 -10,-2 1,-9 9,-6 10,-11 2,-15 -6,-4 -8,-13 -5,-19 4,-7 4,-9 -1,-5 -4,4 -15,2 -23,-5 -12,-9 -16,-9 -19,1 -3,6 -11,12 -18,12 -7,0 -15,7 -19,15 -3,8 -2,15 3,15 5,0 11,9 14,20 3,13 10,18 21,14 10,-4 16,-1 16,7 0,12 2,12 9,0 6,-9 11,-10 15,-2 4,6 4,11 0,11 -4,0 5,9 19,20 14,11 30,20 36,20 6,0 10,6 9,13 -3,13 -1,13 50,3 25,-4 31,-3 26,7 -6,9 -5,9 8,0 8,-7 19,-9 23,-5 5,4 5,2 2,-4 -9,-16 30,-25 60,-13 15,6 31,5 42,-1 10,-5 21,-7 23,-4 3,2 4,-6 3,-20 -2,-18 2,-25 19,-28 21,-4 23,-1 20,36 -1,23 -2,55 -3,71 -1,20 -8,34 -23,42 -56,29 -94,46 -108,49 -8,1 -28,6 -45,12 -16,5 -44,9 -62,8 -17,-1 -29,3 -25,8 3,5 -5,6 -18,3 -13,-3 -28,0 -36,8 -12,11 -12,16 2,29 8,9 22,16 30,16 10,0 12,5 8,13 -6,8 -3,8 9,-2 15,-12 18,-10 27,14 5,14 14,23 20,20 5,-3 10,1 10,9 0,14 12,20 33,17 4,0 6,4 5,11 -2,7 2,12 9,13 6,0 14,3 17,6 4,3 -18,6 -49,5 -30,-1 -55,2 -55,7 0,4 -4,6 -9,2 -5,-3 -12,-1 -16,4 -4,7 -15,7 -30,1 -14,-5 -25,-6 -25,-2 0,9 -37,8 -68,-2 -13,-4 -21,-13 -19,-20 4,-9 -2,-11 -19,-8 -13,2 -24,9 -24,14 0,6 -7,5 -15,-2 -13,-11 -19,-8 -17,11 1,3 -5,6 -13,6 -8,0 -11,-5 -8,-10 3,-6 -2,-5 -12,1 -14,7 -22,6 -33,-4 -7,-8 -17,-12 -21,-10 -4,3 -6,-9 -5,-26 1,-21 -1,-27 -8,-20 -6,6 -17,8 -24,5 -11,-4 -12,-9 -3,-19 10,-12 9,-13 -5,-8 -26,10 -19,-7 18,-41 33,-30 34,-34 26,-71 -5,-21 -10,-41 -11,-44 -8,-24 -12,-30 -21,-30 -5,0 -6,5 -3,10 3,6 2,10 -2,10 -5,0 -10,10 -11,23 -4,39 -8,56 -15,63 -4,4 -2,13 4,21 9,10 8,13 -5,13 -9,0 -16,-5 -16,-11 0,-5 -4,-7 -10,-4 -5,3 -10,3 -10,-2 0,-4 -13,-22 -30,-39 -16,-18 -26,-35 -23,-38 4,-3 -1,-6 -10,-6 -20,0 -34,-40 -17,-50 8,-5 7,-9 -4,-13 -9,-4 -13,-14 -11,-26 3,-17 1,-19 -15,-9 -11,7 -17,22 -16,39 2,22 -1,26 -11,17 -10,-8 -12,-7 -8,4 4,9 -1,18 -10,22 -9,3 -13,10 -10,16 4,7 -2,7 -19,0 -17,-6 -27,-6 -32,2 -5,7 -2,8 7,3 8,-5 10,-4 6,0 -4,5 -15,10 -23,11 -9,1 -13,0 -10,-3 8,-8 -19,-55 -47,-81 -22,-21 -24,-28 -16,-55 6,-18 15,-40 20,-51 8,-14 8,-16 -3,-10 -7,4 -5,-2 5,-13 12,-14 15,-23 7,-28 -5,-3 -8,-11 -5,-16 4,-5 -1,-9 -9,-9 -9,0 -15,-6 -14,-12 3,-14 -31,-12 -46,2 -5,5 0,7 11,4 11,-3 25,1 32,9 10,13 8,15 -14,13 -17,-2 -22,0 -16,8 5,7 1,18 -12,31 -11,11 -17,14 -13,8 4,-7 2,-13 -3,-13 -6,0 -11,5 -11,10 0,6 -5,10 -11,10 -5,0 -8,-4 -5,-8 3,-5 -1,-9 -9,-9 -8,0 -13,2 -10,5 2,2 -10,14 -28,26 -30,20 -34,21 -59,7 -14,-9 -25,-18 -23,-22 3,-3 -7,-4 -20,-1 -14,2 -23,8 -20,12 5,7 -34,47 -41,43 -10,-7 -25,-2 -20,6 3,5 -1,14 -9,21 -10,8 -12,17 -6,28 12,21 -25,76 -46,68 -8,-3 -12,-2 -9,3 3,5 -1,12 -10,15 -15,6 -69,-22 -59,-32 8,-8 -34,-34 -44,-27 -5,3 -13,0 -17,-6 -5,-8 -2,-10 7,-5 8,4 7,2 -2,-6 -9,-7 -15,-21 -13,-30 2,-15 -1,-16 -17,-8 -10,6 -19,13 -19,16 0,3 6,2 13,-2 6,-4 3,2 -7,14 -23,26 -23,26 -23,7 0,-8 5,-11 11,-8 6,3 7,2 3,-2 -15,-17 -39,-14 -34,4 3,11 -2,17 -14,17 -15,0 -16,-3 -6,-15 7,-9 -1,-6 -17,7 -15,12 -33,19 -39,15 -6,-4 -50,-8 -98,-8 -84,-2 -140,-20 -121,-40 4,-5 2,-5 -5,-1 -7,4 -35,-3 -63,-15 -40,-17 -59,-20 -93,-14 -55,10 -117,13 -112,5 2,-3 -5,-12 -17,-19 -11,-7 -17,-8 -14,-3 6,9 -35,26 -61,25 -47,-2 -54,-4 -48,-15 4,-7 0,-5 -7,4 -8,9 -14,36 -13,60 0,24 -4,46 -10,50 -5,4 0,8 13,8 12,0 21,3 21,8 -1,4 0,9 1,12 1,3 3,17 4,32 2,21 0,25 -9,18 -6,-5 -15,-7 -18,-3 -4,3 -15,-5 -25,-17 l -19,-23 -9,29 c -12,36 -12,59 1,59 6,1 20,6 33,13 19,11 22,10 22,-4 0,-10 3,-14 7,-11 3,4 0,18 -7,32 -11,20 -11,27 0,40 10,12 10,18 0,30 -11,13 -10,15 6,9 18,-5 18,-5 1,6 -9,6 -14,17 -11,23 4,7 4,9 -1,5 -5,-5 -14,1 -22,12 -7,10 -19,17 -26,14 -22,-8 -45,-58 -45,-97 0,-45 -7,-56 -25,-37 -10,10 -9,11 3,5 12,-7 13,-6 4,6 -6,8 -10,22 -9,32 2,10 -3,21 -11,24 -8,3 -11,9 -8,14 3,5 -4,9 -16,9 -11,0 -32,11 -45,25 -14,13 -25,21 -25,18 0,-3 -7,0 -15,7 -8,7 -12,16 -10,21 3,4 -10,7 -30,6 -19,-1 -35,-5 -35,-9 0,-5 -5,-8 -11,-8 -5,0 -7,5 -3,12 4,7 3,8 -5,4 -9,-6 -9,-11 -1,-21 9,-11 7,-12 -10,-8 -12,3 -29,-2 -40,-12 -13,-12 -20,-14 -20,-5 0,7 -7,10 -15,6 -8,-3 -14,0 -12,5 1,6 -15,13 -35,14 -28,2 -38,-1 -38,-12 0,-8 -4,-12 -9,-9 -5,4 -11,1 -13,-5 -2,-7 -20,-13 -40,-13 -20,-1 -34,-4 -32,-8 3,-4 -7,-10 -21,-14 -13,-3 -23,-10 -20,-14 8,-12 -11,-21 -29,-14 -9,3 -13,11 -10,16 5,7 -9,8 -39,4 -44,-7 -46,-6 -42,16 3,13 9,24 15,26 5,2 10,8 10,13 0,6 -5,7 -12,3 -8,-5 -9,-2 -5,10 5,14 3,17 -8,12 -23,-8 -18,0 11,19 15,9 24,12 20,7 -9,-15 17,-21 30,-7 13,13 7,62 -9,72 -6,3 -7,1 -3,-5 z m 379,-132 c 12,0 17,-5 14,-13 -3,-8 1,-14 9,-14 7,0 11,5 8,11 -3,6 0,4 8,-4 15,-18 68,-53 68,-45 0,3 8,-3 19,-12 10,-10 18,-22 17,-28 -2,-15 -20,-33 -28,-28 -5,2 -8,0 -8,-4 0,-5 -27,-10 -59,-11 -50,-1 -65,2 -88,22 -15,13 -36,22 -45,20 -10,-1 -20,1 -23,5 -2,4 13,7 34,7 36,-1 38,0 31,20 -6,15 -3,27 8,39 9,10 12,15 5,11 -6,-3 -15,-2 -18,4 -4,6 -3,10 2,9 20,-4 24,2 12,19 -11,14 -11,15 1,5 8,-7 23,-13 33,-13 z m 2157,-81 c 0,-5 -4,-9 -8,-9 -5,0 -9,7 -9,15 0,8 4,12 9,9 4,-3 8,-9 8,-15 z M 306,3933 c -3,-8 2,-13 15,-13 11,0 18,-4 15,-9 -4,-5 -1,-11 6,-13 8,-3 2,-14 -16,-31 -20,-19 -33,-24 -41,-17 -6,5 -15,7 -18,3 -4,-3 -7,1 -7,10 0,10 -6,17 -12,17 -9,0 -9,3 -2,8 10,7 28,42 26,52 0,3 8,6 19,6 12,0 18,-5 15,-13 z m 274,-35 c -3,-3 0,-11 7,-19 21,-26 24,-71 5,-86 -11,-9 -12,-12 -2,-7 8,4 12,3 7,-1 -9,-11 -47,-14 -44,-4 1,4 -2,6 -8,6 -5,-1 -9,-6 -7,-12 2,-5 -4,-3 -13,6 -9,9 -17,28 -18,43 -1,14 -6,26 -11,25 -15,-1 -25,25 -14,38 6,7 7,13 2,14 -5,0 7,6 26,14 28,10 39,10 55,0 11,-7 18,-15 15,-17 z m -396,-15 c -11,-11 -18,-13 -26,-5 -8,8 -17,8 -30,1 -12,-6 -18,-6 -18,1 0,5 5,10 11,10 5,0 8,3 5,8 -2,4 13,6 35,4 34,-4 37,-6 23,-19 z m -96,-21 c -9,-10 -14,-10 -26,0 -13,11 -14,11 -8,-1 6,-9 4,-12 -5,-9 -24,8 -22,36 3,40 30,4 50,-12 36,-30 z m 62,8 c 0,-5 -5,-10 -11,-10 -5,0 -7,5 -4,10 3,6 8,10 11,10 2,0 4,-4 4,-10 z m 2618,-42 c -15,-22 -31,-25 -37,-7 -2,8 2,10 14,5 12,-4 16,-2 12,8 -7,17 2,28 15,20 5,-3 4,-14 -4,-26 z m -48,-3 c 0,-8 -4,-15 -8,-15 -5,0 -9,7 -9,15 0,8 4,15 9,15 4,0 8,-7 8,-15 z M 410,3790 c 0,-4 7,-11 16,-14 15,-6 15,-4 3,11 -8,10 0,6 17,-7 16,-14 31,-34 32,-45 0,-11 6,-21 12,-23 6,-2 4,-9 -7,-17 -18,-14 -47,-9 -37,6 3,5 0,9 -5,9 -6,0 -11,8 -11,17 0,9 -3,14 -6,10 -11,-10 -77,19 -80,36 -1,10 2,15 6,12 5,-3 11,-2 14,3 6,10 46,13 46,2 z m 2295,-110 c -3,-6 1,-17 9,-26 14,-13 14,-17 2,-30 -8,-8 -19,-14 -24,-14 -14,0 -24,29 -15,43 4,7 8,15 9,20 3,16 4,17 15,17 5,0 7,-5 4,-10 z M 748,3650 c -7,-11 -17,-20 -22,-20 -5,0 -1,9 9,20 10,11 20,20 22,20 2,0 -2,-9 -9,-20 z m 67,-10 c 4,-6 11,-7 17,-4 6,4 8,2 5,-4 -8,-12 -47,-4 -47,9 0,12 17,11 25,-1 z m -48,-15 c 0,-8 -4,-12 -9,-9 -5,3 -6,10 -3,15 9,13 12,11 12,-6 z m 1361,-12 c 1,-31 -8,-64 -17,-58 -5,3 -7,-3 -4,-14 6,-25 -12,-35 -65,-34 -33,1 -47,6 -59,22 -11,17 -23,21 -53,19 -21,-1 -37,-6 -34,-10 3,-5 10,-5 16,-2 7,4 8,2 4,-5 -4,-6 -12,-9 -17,-6 -5,4 -9,2 -9,-3 0,-12 -58,-13 -65,-1 -4,5 1,12 9,15 9,3 14,10 11,14 -3,5 -1,11 5,15 6,4 8,10 5,15 -3,5 4,14 15,20 11,6 20,8 20,4 0,-3 8,0 17,7 9,8 14,9 10,3 -3,-6 4,-16 18,-22 13,-6 26,-8 29,-4 3,5 39,7 80,7 42,-1 76,2 76,6 0,4 -9,6 -20,4 -12,-2 -18,0 -15,6 4,5 10,7 15,4 5,-3 11,-1 15,5 9,14 12,13 13,-7 z m 280,-11 c 6,-9 12,-12 12,-8 0,4 4,5 10,1 5,-3 1,-19 -10,-37 -14,-23 -26,-31 -48,-32 -17,-1 -29,1 -27,5 2,3 -11,13 -30,23 -33,18 -34,19 -17,42 16,22 50,35 38,15 -4,-5 3,-7 14,-4 11,3 17,9 14,14 -9,15 30,-3 44,-19 z m -195,-68 c -10,-8 -13,-13 -8,-12 6,2 11,-1 13,-6 1,-6 -4,-11 -11,-12 -16,-2 -19,25 -5,43 6,7 15,10 20,7 5,-3 1,-12 -9,-20 z m 362,-74 c -3,-6 1,-13 9,-16 9,-3 13,-10 10,-15 -3,-5 0,-9 6,-9 8,0 8,-6 0,-20 -13,-24 -33,-26 -55,-4 -13,13 -13,19 -3,32 7,9 8,13 2,9 -6,-3 -11,0 -11,8 0,8 4,12 8,9 4,-2 10,0 14,6 3,5 11,10 16,10 6,0 7,-5 4,-10 z M 143,3422 c 16,-17 15,-20 -3,-40 -24,-26 -36,-27 -56,-8 -18,19 -18,31 2,50 20,21 37,20 57,-2 z m 2261,-7 c -7,-16 -24,-21 -24,-6 0,8 7,13 27,20 1,1 0,-6 -3,-14 z m -424,-36 c 0,-24 -4,-30 -16,-25 -8,3 -12,2 -9,-4 9,-14 -9,-12 -23,2 -9,9 -12,9 -12,-1 0,-7 -4,-10 -9,-6 -8,4 -9,48 -2,63 0,1 17,2 36,2 32,0 35,-2 35,-31 z m 1150,-40 c 0,-5 -9,-9 -20,-9 -22,0 -27,16 -7,23 15,5 27,-1 27,-14 z m 3170,-18 c 0,-5 -7,-11 -15,-15 -31,-11 4,-46 60,-60 6,-2 18,-7 29,-11 17,-8 17,-9 -5,-22 -13,-8 -17,-12 -7,-9 16,5 19,-9 5,-31 -5,-8 -3,-13 5,-14 7,0 4,-4 -7,-9 -26,-10 -77,0 -91,18 -6,8 -22,16 -35,18 -33,3 -32,3 -52,18 -17,13 -16,16 8,62 25,48 29,51 98,63 4,0 7,-3 7,-8 z m -2079,-24 c -9,-9 -3,-47 8,-47 18,0 7,-41 -16,-55 -24,-16 -26,-16 -44,4 -20,22 -25,46 -10,55 5,4 8,14 7,24 -2,9 1,20 7,23 14,10 57,5 48,-4 z m -839,-42 c 3,3 3,-5 1,-19 -4,-18 -14,-27 -36,-32 -18,-4 -43,-14 -56,-23 -19,-12 -23,-12 -17,-2 7,11 6,12 -5,5 -22,-13 -56,-12 -56,2 0,7 5,10 11,7 6,-3 5,0 -1,8 -15,15 -16,29 -5,47 7,10 15,10 43,-1 37,-15 59,-16 59,-4 0,4 5,14 12,21 11,12 15,12 29,0 9,-8 18,-12 21,-9 z m 704,-80 c -3,-20 -13,-28 -26,-20 -8,5 -8,11 1,21 15,18 28,18 25,-1 z m 414,-25 c -8,-5 -10,-10 -4,-10 7,0 9,-11 6,-25 -6,-36 -17,-31 -18,10 0,26 4,35 15,35 14,0 14,-1 1,-10 z m 560,-34 c 0,-2 -7,-9 -15,-16 -12,-10 -15,-10 -15,4 0,9 7,16 15,16 8,0 15,-2 15,-4 z m -150,-16 c 0,-5 -2,-10 -4,-10 -3,0 -8,5 -11,10 -3,6 -1,10 4,10 6,0 11,-4 11,-10 z m -709,-44 c -6,-7 -9,-15 -6,-18 3,-2 -2,-5 -10,-5 -8,0 -11,5 -7,11 4,6 7,14 8,19 1,4 2,10 3,13 0,3 6,2 11,-1 8,-5 8,-11 1,-19 z m 1329,10 c -1,-5 4,-12 10,-16 14,-9 -16,-43 -33,-37 -22,7 -31,34 -16,50 14,17 41,19 39,3 z m -360,-160 c -12,-12 -13,-29 -1,-22 11,7 36,-22 27,-31 -3,-3 -6,0 -6,8 -1,11 -4,10 -14,-3 -11,-15 -16,-15 -30,-5 -15,11 -16,17 -6,38 6,14 18,26 26,26 10,0 11,-4 4,-11 z m 840,-151 c 14,-17 5,-35 -19,-35 -25,0 -32,10 -20,31 12,23 22,24 39,4 z"
       id="path189" />
    <path
       d="m 1870,3590 c -9,-6 -10,-10 -3,-10 6,0 15,5 18,10 8,12 4,12 -15,0 z"
       id="path191" />
    <path
       d="m 58,4213 c 7,-3 16,-2 19,1 4,3 -2,6 -13,5 -11,0 -14,-3 -6,-6 z"
       id="path193" />
    <path
       d="m 51,4183 c 7,-10 14,-19 15,-21 1,-2 4,4 8,13 3,9 2,13 -4,10 -6,-3 -10,-1 -10,4 0,6 -5,11 -11,11 -8,0 -7,-6 2,-17 z"
       id="path195" />
    <path
       d="m 2507,4186 c -7,-17 -2,-52 6,-48 4,1 6,4 5,5 -2,2 3,11 10,19 10,12 10,18 -2,27 -10,9 -15,8 -19,-3 z"
       id="path197" />
    <path
       d="m 292,4179 c 3,-8 13,-13 22,-11 10,2 23,-1 30,-7 9,-8 13,-7 13,2 0,8 -5,14 -11,14 -6,0 -22,3 -35,7 -17,6 -22,5 -19,-5 z"
       id="path199" />
    <path
       d="m 649,4174 c -7,-9 -8,-14 -1,-14 6,0 13,6 15,13 4,9 6,9 6,-1 1,-8 9,-10 27,-6 21,6 25,4 19,-7 -6,-11 -5,-12 6,-1 7,6 24,12 38,12 47,0 12,12 -43,15 -38,2 -59,-1 -67,-11 z"
       id="path201" />
    <path
       d="m 3155,4156 c 0,-31 4,-36 28,-36 8,0 7,4 -3,10 -12,8 -12,10 -1,10 10,0 11,3 2,13 -6,8 -8,16 -5,19 2,3 -1,8 -9,11 -9,3 -13,-4 -12,-27 z"
       id="path203" />
    <path
       d="m 635,4140 c 3,-5 8,-10 11,-10 2,0 4,5 4,10 0,6 -5,10 -11,10 -5,0 -7,-4 -4,-10 z"
       id="path205" />
    <path
       d="m 215,4120 c 3,-5 8,-10 11,-10 2,0 4,5 4,10 0,6 -5,10 -11,10 -5,0 -7,-4 -4,-10 z"
       id="path207" />
    <path
       d="m 1050,4110 c -7,-14 -7,-20 0,-20 5,0 10,-8 10,-17 0,-15 2,-16 10,-3 13,19 13,60 0,60 -5,0 -14,-9 -20,-20 z"
       id="path209" />
    <path
       d="m 3021,4106 c -9,-10 -7,-13 11,-12 12,0 23,7 26,14 5,16 -23,15 -37,-2 z"
       id="path211" />
    <path
       d="m 4895,4085 c -5,-2 -22,-6 -37,-9 -20,-5 -27,-12 -25,-26 2,-11 6,-23 10,-26 12,-12 8,-26 -5,-18 -6,4 -8,3 -5,-3 4,-6 19,-8 34,-6 21,3 24,2 13,-6 -10,-7 0,-9 38,-8 40,2 49,4 37,13 -8,6 -12,14 -8,17 3,4 2,7 -4,7 -5,0 -9,10 -8,22 1,19 -16,50 -27,47 -2,0 -7,-2 -13,-4 z"
       id="path213" />
    <path
       d="m 1008,4063 c 6,-3 10,-8 8,-12 -3,-4 1,-8 8,-8 22,0 14,23 -8,24 -12,1 -15,-1 -8,-4 z"
       id="path215" />
    <path
       d="m 5376,4001 c -15,-16 -14,-19 6,-29 13,-7 37,-10 53,-8 31,4 59,-10 49,-25 -3,-5 2,-9 11,-9 9,0 14,-4 10,-9 -3,-5 0,-13 6,-17 8,-4 9,-3 5,4 -4,7 -3,12 2,12 6,0 8,9 5,21 -4,12 0,25 8,30 11,7 10,9 -6,10 -11,1 -23,1 -27,0 -5,0 -7,4 -5,10 1,7 -10,15 -25,20 -17,4 -28,3 -28,-2 0,-6 -6,-7 -12,-2 -22,13 -36,12 -52,-6 z"
       id="path217" />
    <path
       d="m 4535,3988 c -4,-10 -16,-18 -28,-18 -11,0 -17,-3 -14,-7 10,-9 -14,-34 -26,-26 -6,3 -7,1 -3,-5 4,-6 14,-8 23,-5 11,4 14,3 9,-5 -5,-8 1,-13 16,-14 62,-4 76,-3 72,4 -3,4 -1,8 5,8 5,0 9,9 8,19 0,11 -6,19 -12,18 -5,-1 -9,4 -7,11 1,6 -4,12 -12,12 -8,0 -16,6 -19,13 -3,8 -7,6 -12,-5 z"
       id="path219" />
    <path
       d="m 4956,3961 c -4,-5 0,-12 6,-14 10,-4 10,-6 1,-6 -7,-1 -10,-8 -7,-16 10,-25 20,-17 20,15 0,29 -9,39 -20,21 z"
       id="path221" />
    <path
       d="m 1720,3939 c 0,-5 5,-7 10,-4 6,3 10,8 10,11 0,2 -4,4 -10,4 -5,0 -10,-5 -10,-11 z"
       id="path223" />
    <path
       d="m 857,3928 c -15,-5 -24,-14 -21,-19 4,-6 11,-6 19,1 8,7 18,9 23,6 5,-3 9,1 9,9 0,8 -1,15 -1,14 -1,0 -13,-5 -29,-11 z"
       id="path225" />
    <path
       d="m 5380,3936 c 0,-2 7,-6 15,-10 8,-3 15,-1 15,4 0,6 -7,10 -15,10 -8,0 -15,-2 -15,-4 z"
       id="path227" />
    <path
       d="m 1565,3913 c -11,-3 -28,-15 -38,-27 -17,-19 -17,-21 -3,-24 9,-2 14,-7 11,-12 -3,-4 3,-14 12,-21 12,-10 14,-10 9,-1 -5,8 0,12 14,12 12,0 19,-3 17,-7 -7,-10 65,-10 80,0 14,9 0,66 -19,79 -14,8 -51,9 -83,1 z m 100,-73 c -3,-5 -12,-10 -18,-10 -7,0 -6,4 3,10 19,12 23,12 15,0 z"
       id="path229" />
    <path
       d="m 4715,3910 c -12,-5 -14,-9 -6,-9 12,-1 11,-4 -2,-13 -9,-7 -18,-23 -20,-35 -2,-12 -6,-25 -10,-29 -3,-4 -4,3 -2,16 3,16 0,20 -11,16 -9,-3 -20,-6 -25,-6 -5,0 0,-9 12,-21 18,-18 25,-19 46,-10 22,10 23,14 12,28 -8,9 5,4 28,-11 36,-24 46,-26 70,-18 15,6 22,11 16,11 -7,1 -13,6 -13,12 0,5 5,7 12,3 6,-4 8,-3 4,4 -3,6 -15,9 -25,7 -15,-3 -19,1 -16,15 3,14 -1,18 -16,15 -10,-2 -22,1 -25,7 -5,7 -2,8 7,3 12,-8 12,-6 0,8 -7,9 -14,17 -15,16 0,0 -10,-4 -21,-9 z"
       id="path231" />
    <path
       d="m 5395,3899 c -4,-6 -14,-8 -22,-5 -8,4 -11,1 -8,-5 4,-6 14,-8 22,-5 11,5 13,2 8,-11 -4,-10 -8,-24 -8,-30 0,-7 -5,-13 -11,-13 -6,0 -4,-4 4,-9 18,-12 34,-3 21,13 -12,14 3,41 18,32 7,-5 9,-1 5,8 -3,9 -11,16 -18,16 -6,0 -4,5 4,10 9,6 10,10 3,10 -6,0 -15,-5 -18,-11 z"
       id="path233" />
    <path
       d="m 5674,3885 c -10,-8 -14,-15 -8,-15 6,0 17,7 24,15 16,19 9,19 -16,0 z"
       id="path235" />
    <path
       d="m 4890,3875 c 0,-8 -8,-15 -17,-16 -11,0 -13,-3 -5,-6 6,-2 10,-8 7,-13 -3,-4 3,-18 13,-30 17,-21 18,-21 38,-3 14,12 19,23 13,33 -4,8 -10,23 -13,33 -7,21 -36,23 -36,2 z"
       id="path237" />
    <path
       d="m 5490,3865 c -16,-9 -19,-15 -10,-15 10,-1 9,-4 -4,-9 -11,-4 -20,-15 -22,-25 -2,-17 -1,-17 19,1 17,14 19,14 9,1 -11,-14 -10,-20 7,-37 17,-17 18,-21 5,-21 -8,0 -13,-4 -10,-9 8,-12 -13,-28 -47,-36 -34,-9 -36,-35 -3,-35 14,0 31,-6 38,-12 27,-26 52,-43 44,-30 -7,11 11,17 37,13 5,-1 6,3 2,9 -3,5 1,10 10,10 9,0 14,4 11,9 -5,8 68,-4 84,-14 3,-2 6,12 6,31 -1,21 -6,34 -14,34 -7,0 -11,4 -8,9 3,5 -1,11 -9,15 -8,3 -13,11 -11,18 1,7 1,10 -1,6 -3,-5 -12,-8 -21,-8 -15,0 -15,2 -2,10 9,6 11,10 3,10 -7,0 -10,7 -6,15 3,9 2,15 -3,14 -16,-4 -44,13 -38,22 3,5 2,9 -3,8 -21,-4 -43,2 -43,12 0,5 5,7 12,3 7,-4 8,-3 4,4 -9,14 -5,15 -36,-3 z"
       id="path239" />
    <path
       d="m 5431,3836 c -9,-11 -9,-16 1,-22 7,-4 10,-4 6,1 -4,4 -3,14 3,22 6,7 9,13 6,13 -2,0 -10,-6 -16,-14 z"
       id="path241" />
    <path
       d="m 6467,3813 c 5,-12 3,-14 -8,-8 -11,7 -11,5 1,-10 8,-10 14,-20 12,-22 -2,-3 -2,-7 1,-9 3,-3 7,9 9,25 3,19 0,32 -8,35 -9,3 -11,-1 -7,-11 z"
       id="path243" />
    <path
       d="m 5765,3780 c -3,-5 -12,-7 -21,-3 -9,3 -14,0 -12,-8 2,-8 -3,-13 -10,-11 -8,1 -11,-2 -8,-7 7,-12 125,-11 132,1 3,5 0,15 -6,23 -14,17 -66,20 -75,5 z"
       id="path245" />
    <path
       d="m 6493,3766 c 0,-15 22,-15 34,0 4,5 4,6 -1,2 -5,-4 -14,-3 -21,2 -8,7 -12,5 -12,-4 z"
       id="path247" />
    <path
       d="m 6580,3768 c 0,-9 -6,-19 -12,-21 -8,-3 -5,-6 5,-6 11,-1 15,-6 11,-13 -4,-6 -3,-8 4,-4 6,3 9,16 7,28 -5,26 -15,37 -15,16 z"
       id="path249" />
    <path
       d="m 5680,3631 c 0,-6 5,-13 10,-16 6,-3 10,1 10,9 0,9 -4,16 -10,16 -5,0 -10,-4 -10,-9 z"
       id="path251" />
    <path
       d="m 4364,3603 c -13,-32 -9,-48 13,-51 20,-3 21,-1 13,27 -4,16 -6,32 -2,35 3,3 1,6 -5,6 -6,0 -14,-8 -19,-17 z"
       id="path253" />
    <path
       d="m 5118,3577 c -10,-7 -10,-10 0,-14 6,-2 10,-8 8,-12 -3,-4 1,-8 9,-8 8,0 11,5 8,10 -4,6 0,8 9,4 9,-3 24,1 35,8 20,16 20,16 -24,19 -18,1 -38,-2 -45,-7 z"
       id="path255" />
    <path
       d="m 4839,3547 c 10,-13 10,-17 1,-17 -9,0 -10,-3 -1,-13 6,-8 8,-17 4,-20 -3,-4 1,-7 11,-7 11,0 15,5 10,13 -4,6 -3,9 1,5 5,-5 10,-20 11,-34 4,-39 22,-55 53,-47 14,3 29,11 33,17 5,7 8,6 8,-3 0,-11 3,-11 15,-1 8,7 15,17 15,23 0,6 -3,8 -6,4 -7,-6 -84,29 -84,39 0,3 6,2 13,-1 6,-4 4,0 -5,8 -10,8 -14,18 -10,22 4,5 1,5 -6,1 -7,-4 -10,-13 -6,-19 3,-7 0,-5 -8,4 -7,9 -24,22 -38,29 -23,12 -24,12 -11,-3 z"
       id="path257" />
    <path
       d="m 5858,3543 c -19,-5 -22,-12 -12,-38 6,-14 8,-14 28,2 19,16 19,16 7,1 -7,-10 -9,-18 -3,-18 17,0 23,30 7,36 -8,4 -12,10 -9,15 3,5 4,8 2,8 -2,-1 -11,-3 -20,-6 z"
       id="path259" />
    <path
       d="m 3459,3517 c -1,-1 -2,-14 -3,-28 -2,-14 -5,-30 -8,-35 -7,-11 43,-11 60,0 7,4 10,12 6,17 -3,5 -10,7 -15,4 -5,-4 -17,-2 -26,4 -16,9 -16,11 7,20 14,5 23,10 20,11 -13,4 -40,8 -41,7 z"
       id="path261" />
    <path
       d="m 5370,3509 c 0,-6 -7,-9 -14,-6 -10,4 -13,1 -10,-7 6,-15 34,-17 31,-2 -1,6 4,10 11,8 8,-1 11,2 7,8 -8,13 -25,13 -25,-1 z"
       id="path263" />
    <path
       d="m 5300,3486 c 0,-2 7,-6 15,-10 8,-3 15,-1 15,4 0,6 -7,10 -15,10 -8,0 -15,-2 -15,-4 z"
       id="path265" />
    <path
       d="m 4334,3472 c -5,-4 -10,-12 -11,-17 -2,-13 45,-12 55,1 4,5 6,8 3,7 -2,-1 -11,2 -20,7 -10,5 -21,6 -27,2 z"
       id="path267" />
    <path
       d="m 4175,3460 c -3,-5 1,-13 10,-16 22,-9 29,1 11,15 -10,8 -16,9 -21,1 z"
       id="path269" />
    <path
       d="m 5045,3461 c -3,-5 -1,-12 5,-16 5,-3 10,1 10,9 0,18 -6,21 -15,7 z"
       id="path271" />
    <path
       d="m 5118,3443 c 7,-3 16,-2 19,1 4,3 -2,6 -13,5 -11,0 -14,-3 -6,-6 z"
       id="path273" />
    <path
       d="m 4127,3423 c -12,-11 -8,-34 8,-49 8,-9 15,-11 15,-5 0,6 7,11 15,11 25,0 17,18 -12,29 -21,8 -22,10 -5,7 12,-2 20,0 16,5 -6,11 -28,12 -37,2 z"
       id="path275" />
    <path
       d="m 4294,3422 c -15,-11 -10,-37 6,-34 8,2 19,7 23,11 11,11 -16,32 -29,23 z"
       id="path277" />
    <path
       d="m 4435,3400 c -3,-6 1,-7 9,-4 18,7 21,14 7,14 -6,0 -13,-4 -16,-10 z"
       id="path279" />
    <path
       d="m 5011,3358 c -9,-23 2,-58 18,-58 19,0 31,26 18,40 -9,10 -9,11 1,5 11,-6 11,-3 0,14 -17,27 -27,27 -37,-1 z"
       id="path281" />
    <path
       d="m 4656,3151 c -4,-5 -2,-12 3,-15 5,-4 12,-2 15,3 4,5 2,12 -3,15 -5,4 -12,2 -15,-3 z"
       id="path283" />
  </g>
</svg>
