<?xml version="1.0" standalone="no"?>
<!DOCTYPE svg PUBLIC "-//W3C//DTD SVG 20010904//EN"
 "http://www.w3.org/TR/2001/REC-SVG-20010904/DTD/svg10.dtd">
<svg version="1.0" xmlns="http://www.w3.org/2000/svg"
 width="512.000000pt" height="512.000000pt" viewBox="0 0 512.000000 512.000000"
 preserveAspectRatio="xMidYMid meet">
<metadata>
Created by potrace 1.14, written by Peter Selinger 2001-2017
</metadata>
<g transform="translate(0.000000,512.000000) scale(0.100000,-0.100000)"
fill="#000000" stroke="none">
<path d="M0 4960 l0 -160 100 0 c178 0 220 42 220 220 l0 100 -160 0 -160 0 0
-160z"/>
<path d="M960 5045 c0 -87 -24 -150 -73 -191 -40 -33 -60 -41 -187 -70 -149
-34 -229 -64 -265 -99 -35 -36 -65 -116 -99 -265 -29 -127 -37 -147 -70 -187
-41 -49 -104 -73 -191 -73 l-75 0 0 -160 0 -160 79 0 c91 0 114 -13 157 -86
20 -34 30 -75 45 -181 11 -76 23 -157 28 -180 14 -70 -21 -177 -74 -226 -42
-40 -65 -47 -156 -47 l-79 0 0 -225 0 -225 79 0 c71 0 81 2 105 26 14 15 26
37 26 49 0 54 33 131 74 171 40 41 117 74 171 74 27 0 63 40 95 105 34 69 132
165 204 200 67 33 96 60 96 90 0 54 33 131 74 171 40 41 117 74 171 74 27 0
63 40 95 105 34 69 132 165 204 200 67 33 96 60 96 90 0 54 33 131 74 171 40
41 117 74 171 74 27 0 63 40 95 105 34 69 132 165 204 200 67 33 96 60 96 90
0 54 33 131 74 171 40 40 117 74 170 74 11 0 33 12 48 27 26 25 28 32 28 105
l0 78 -225 0 -225 0 0 -79 c0 -91 -7 -114 -47 -156 -49 -53 -156 -88 -226 -74
-23 5 -104 17 -180 28 -106 15 -147 25 -181 45 -73 43 -86 66 -86 157 l0 79
-160 0 -160 0 0 -75z"/>
<path d="M2880 5037 c0 -74 3 -88 28 -128 43 -67 115 -126 164 -134 54 -10 93
-49 103 -102 5 -34 1 -52 -22 -98 -27 -56 -47 -77 -143 -148 -24 -18 -59 -53
-77 -77 -71 -96 -92 -116 -148 -143 -46 -23 -64 -27 -98 -22 -54 10 -92 49
-102 103 -8 50 -75 129 -142 168 -43 26 -44 26 -88 9 -50 -19 -88 -58 -105
-110 -10 -32 -9 -40 14 -79 39 -66 118 -133 168 -141 54 -10 93 -48 103 -102
5 -34 1 -52 -22 -98 -27 -56 -47 -77 -143 -148 -24 -18 -59 -53 -77 -77 -71
-96 -92 -116 -148 -143 -46 -23 -64 -27 -98 -22 -54 10 -92 49 -102 103 -8 50
-75 129 -141 168 -39 23 -47 24 -79 14 -52 -17 -91 -55 -110 -105 -17 -44 -17
-45 9 -88 39 -67 118 -134 168 -142 54 -10 93 -48 103 -102 5 -34 1 -52 -22
-98 -27 -56 -47 -77 -143 -148 -24 -18 -59 -53 -77 -77 -71 -96 -92 -116 -148
-143 -46 -23 -64 -27 -98 -22 -54 10 -92 49 -102 103 -8 50 -75 129 -142 168
-43 26 -44 26 -88 9 -50 -19 -88 -58 -105 -110 -10 -32 -9 -40 14 -79 39 -66
118 -133 168 -141 54 -10 93 -48 103 -102 5 -34 1 -52 -22 -98 -27 -56 -47
-77 -143 -148 -24 -18 -59 -53 -77 -77 -71 -96 -92 -116 -148 -143 -46 -23
-64 -27 -98 -22 -54 10 -92 49 -102 103 -8 50 -75 129 -142 168 -43 26 -44 26
-88 9 -50 -19 -88 -58 -105 -110 -10 -32 -9 -40 14 -79 38 -65 118 -133 166
-141 22 -4 51 -16 64 -26 28 -22 51 -89 40 -121 -11 -35 -76 -98 -128 -125
-67 -34 -147 -111 -181 -175 -32 -61 -78 -113 -117 -134 -17 -9 -58 -14 -108
-14 l-80 0 0 -330 0 -330 87 0 87 0 70 73 c39 40 95 101 124 135 85 99 105
110 179 103 35 -4 68 -12 74 -18 6 -6 13 -35 15 -65 11 -132 53 -378 72 -418
9 -19 32 -45 51 -57 30 -20 36 -21 60 -9 39 21 65 53 104 131 42 84 81 123
167 165 73 36 105 62 126 101 12 24 11 30 -9 60 -12 19 -38 42 -57 51 -40 19
-286 61 -418 72 -30 2 -59 9 -65 15 -6 6 -14 39 -18 74 -7 74 4 94 103 179 61
52 131 121 279 275 41 43 108 107 148 142 40 36 90 90 110 120 45 70 72 97
142 142 30 20 84 69 120 110 123 139 209 221 225 215 9 -3 35 -6 58 -6 61 0
77 -16 82 -81 11 -134 53 -379 72 -419 9 -19 32 -45 51 -57 30 -20 36 -21 60
-9 39 21 65 53 104 131 42 84 81 123 167 165 73 36 105 62 126 101 12 24 11
30 -9 60 -12 19 -38 42 -57 51 -40 19 -286 61 -418 72 -30 2 -59 9 -65 15 -6
6 -14 39 -18 74 -5 52 -3 68 15 97 27 46 59 77 127 121 30 20 84 69 120 109
82 93 176 187 269 269 40 36 89 90 109 120 45 70 72 97 142 142 30 20 84 69
120 110 123 139 209 221 225 215 9 -3 35 -6 58 -6 61 0 77 -16 82 -81 11 -134
53 -379 72 -419 9 -19 32 -45 51 -57 30 -20 36 -21 60 -9 39 21 65 53 101 126
42 86 81 125 165 167 78 39 110 65 131 104 12 24 11 30 -9 60 -12 19 -38 42
-57 51 -40 19 -286 61 -418 72 -30 2 -59 9 -65 15 -6 6 -14 39 -18 74 -5 52
-3 68 15 97 27 46 59 77 127 121 30 20 84 69 120 109 35 40 94 103 130 139 36
36 99 95 139 130 40 36 89 90 109 120 45 70 73 98 137 139 28 18 79 61 112 96
l62 64 0 86 0 86 -305 0 -305 0 0 -83 c0 -80 -1 -85 -34 -123 -47 -56 -136
-98 -187 -89 -84 14 -109 62 -109 208 l0 87 -170 0 -170 0 0 -83z"/>
<path d="M4483 5018 c5 -128 43 -361 65 -408 9 -19 32 -45 51 -57 30 -20 36
-21 60 -9 39 21 65 53 101 126 39 79 80 124 142 156 39 20 62 24 133 24 l85 0
0 135 0 135 -321 0 -321 0 5 -102z"/>
<path d="M4305 4418 c-40 -22 -68 -55 -102 -123 -46 -91 -83 -129 -168 -172
-78 -39 -110 -65 -131 -104 -12 -24 -11 -30 9 -60 12 -19 38 -42 57 -51 40
-19 286 -61 418 -72 30 -2 59 -9 65 -15 6 -6 14 -39 18 -74 5 -52 3 -68 -15
-97 -27 -46 -59 -77 -127 -121 -30 -20 -84 -69 -120 -109 -82 -93 -176 -187
-269 -269 -40 -36 -89 -90 -109 -120 -45 -70 -72 -97 -142 -142 -30 -20 -84
-69 -120 -110 -123 -139 -209 -221 -225 -215 -9 3 -35 6 -58 6 -61 0 -77 16
-82 81 -11 134 -53 379 -72 419 -9 19 -32 45 -51 57 -30 20 -36 21 -60 9 -39
-21 -65 -53 -104 -131 -42 -84 -81 -123 -167 -165 -73 -36 -105 -62 -126 -101
-12 -24 -11 -30 9 -60 12 -19 38 -42 57 -51 40 -19 286 -61 418 -72 30 -2 59
-9 65 -15 6 -6 14 -39 18 -74 5 -52 3 -68 -15 -97 -27 -46 -59 -77 -127 -121
-30 -20 -84 -69 -120 -109 -82 -93 -176 -187 -269 -269 -40 -36 -89 -90 -109
-120 -45 -70 -72 -97 -142 -142 -30 -20 -84 -69 -120 -110 -123 -139 -209
-221 -225 -215 -9 3 -35 6 -58 6 -61 0 -77 16 -82 81 -11 134 -53 379 -72 419
-9 19 -32 45 -51 57 -30 20 -36 21 -60 9 -39 -21 -65 -53 -104 -131 -42 -84
-81 -123 -167 -165 -73 -36 -105 -62 -126 -101 -12 -24 -11 -30 9 -60 12 -19
38 -42 57 -51 40 -19 286 -61 418 -72 30 -2 59 -9 65 -15 6 -6 14 -39 18 -74
5 -52 3 -68 -15 -97 -27 -46 -59 -77 -127 -121 -30 -20 -84 -69 -120 -109 -82
-93 -176 -187 -269 -269 -40 -36 -89 -90 -109 -120 -45 -70 -73 -98 -137 -139
-28 -18 -79 -61 -112 -96 l-62 -64 0 -86 0 -86 305 0 305 0 0 83 c0 80 1 85
34 123 47 56 136 98 187 89 84 -14 109 -62 109 -207 l0 -88 170 0 170 0 0 83
c0 74 -3 88 -28 128 -43 67 -115 126 -164 134 -54 10 -93 49 -103 102 -5 34
-1 52 22 98 27 56 47 77 143 148 24 18 59 53 77 77 71 96 92 116 148 143 46
23 64 27 98 22 54 -10 92 -49 102 -103 8 -50 75 -129 142 -168 43 -26 44 -26
88 -9 50 19 88 58 105 110 10 32 9 40 -14 79 -39 66 -118 133 -168 141 -54 10
-93 48 -103 102 -5 34 -1 52 22 98 27 56 47 77 143 148 24 18 59 53 77 77 71
96 92 116 148 143 46 23 64 27 98 22 54 -10 92 -49 102 -103 8 -50 75 -129
142 -168 43 -26 44 -26 88 -9 50 19 88 58 105 110 10 32 9 40 -14 79 -39 66
-118 133 -168 141 -54 10 -93 48 -103 102 -5 34 -1 52 22 98 27 56 47 77 143
148 24 18 59 53 77 77 71 96 92 116 148 143 46 23 64 27 98 22 54 -10 92 -49
102 -103 8 -50 75 -129 141 -168 39 -23 47 -24 79 -14 52 17 91 55 110 105 17
44 17 45 -9 88 -39 67 -118 134 -168 142 -54 10 -93 48 -103 102 -5 34 -1 52
22 98 27 56 47 77 143 148 24 18 59 53 77 77 71 96 92 116 148 143 46 23 64
27 98 22 54 -10 92 -49 102 -103 8 -50 75 -129 141 -168 39 -23 47 -24 79 -14
52 17 91 55 110 105 17 44 17 45 -9 88 -39 67 -118 134 -168 142 -54 10 -93
48 -103 102 -5 34 -1 52 22 98 27 56 47 77 143 148 24 18 59 53 77 77 71 95
92 116 146 143 48 23 68 27 141 27 l86 0 0 330 0 330 -87 0 -87 0 -70 -73
c-39 -40 -95 -101 -124 -135 -85 -99 -105 -110 -179 -103 -35 4 -68 12 -74 18
-6 6 -13 35 -15 65 -6 72 -39 290 -59 394 -11 54 -85 111 -120 92z"/>
<path d="M4944 2431 c-11 -10 -33 -45 -49 -77 -35 -72 -131 -170 -200 -204
-65 -32 -105 -68 -105 -95 0 -54 -33 -131 -74 -171 -40 -41 -117 -74 -171 -74
-30 0 -57 -29 -90 -96 -35 -72 -131 -170 -200 -204 -65 -32 -105 -68 -105 -95
0 -54 -33 -131 -74 -171 -40 -41 -117 -74 -171 -74 -30 0 -57 -29 -90 -96 -35
-72 -131 -170 -200 -204 -65 -32 -105 -68 -105 -95 0 -54 -33 -131 -74 -171
-40 -41 -117 -74 -171 -74 -30 0 -57 -29 -90 -96 -35 -72 -131 -170 -200 -204
-27 -14 -62 -36 -77 -49 -26 -23 -28 -30 -28 -103 l0 -78 265 0 265 0 0 80 c0
78 15 155 41 215 26 59 113 121 130 93 14 -22 212 -218 221 -218 4 0 8 -38 8
-85 l0 -85 400 0 400 0 0 85 0 85 40 25 c60 38 177 73 250 76 119 4 155 40
159 159 3 73 38 190 76 250 l25 40 85 0 85 0 0 400 0 400 -85 0 c-47 0 -85 4
-85 8 0 9 -196 207 -218 221 -28 17 34 104 93 130 60 26 137 41 215 41 l80 0
0 265 0 265 -78 0 c-63 0 -82 -4 -98 -19z"/>
<path d="M465 578 c-41 -22 -68 -55 -102 -123 -42 -84 -82 -129 -145 -161 -39
-20 -62 -24 -133 -24 l-85 0 0 -135 0 -135 321 0 320 0 -2 95 c-1 52 -8 121
-15 152 -7 31 -19 99 -25 151 -14 103 -34 144 -84 173 -23 14 -35 15 -50 7z"/>
<path d="M4930 227 c-38 -19 -50 -54 -50 -144 l0 -83 120 0 120 0 0 120 0 120
-82 0 c-47 0 -94 -6 -108 -13z"/>
</g>
</svg>
