<svg xmlns="http://www.w3.org/2000/svg" viewBox="0 -0.5 30 28" shape-rendering="crispEdges">
<metadata>Made with Pixels to Svg https://codepen.io/shshaw/pen/XbxvNj</metadata>
<path stroke="#ffffff" d="M0 0h4M0 1h4M7 1h11M19 1h11M0 2h3M6 2h1M8 2h3M12 2h6M19 2h11M0 3h3M4 3h1M6 3h1M8 3h10M19 3h11M0 4h2M4 4h1M6 4h1M8 4h10M19 4h11M0 5h2M4 5h1M6 5h2M9 5h9M19 5h11M0 6h2M4 6h1M6 6h2M9 6h9M19 6h11M0 7h2M3 7h2M6 7h2M9 7h2M12 7h5M0 8h2M3 8h2M6 8h10M17 8h1M19 8h1M22 8h8M0 9h2M3 9h2M6 9h3M10 9h5M17 9h1M19 9h2M23 9h7M0 10h2M3 10h2M6 10h3M10 10h5M16 10h2M19 10h3M23 10h7M0 11h2M3 11h2M6 11h3M11 11h3M15 11h3M19 11h4M24 11h6M0 12h1M3 12h2M6 12h3M11 12h3M15 12h3M19 12h4M24 12h6M0 13h1M3 13h2M6 13h4M11 13h3M15 13h3M19 13h5M25 13h5M0 14h1M3 14h2M6 14h4M11 14h2M14 14h4M19 14h5M26 14h4M0 15h1M2 15h3M6 15h4M11 15h2M14 15h4M19 15h6M26 15h4M0 16h1M2 16h3M6 16h4M12 16h1M14 16h4M19 16h6M26 16h4M0 17h1M2 17h3M6 17h4M11 17h1M13 17h5M19 17h6M27 17h3M0 18h1M2 18h3M6 18h5M13 18h5M19 18h7M27 18h3M0 19h1M2 19h3M6 19h5M13 19h5M19 19h7M27 19h3M2 20h3M6 20h5M12 20h6M19 20h8M28 20h2M2 21h3M6 21h5M12 21h6M19 21h8M29 21h1M2 22h3M6 22h5M12 22h6M19 22h9M29 22h1M1 23h4M6 23h5M12 23h6M19 23h9M29 23h1M1 24h4M6 24h12M19 24h9M29 24h1" />
<path stroke="#f6f6f6" d="M4 0h1" />
<path stroke="#ff0a0a" d="M5 0h1M5 1h1M18 1h1M5 2h1M18 2h1M5 3h1M18 3h1M5 4h1M18 4h1M5 5h1M18 5h1M5 6h1M18 6h1M5 7h1M18 7h1M5 8h1M18 8h1M5 9h1M18 9h1M5 10h1M18 10h1M5 11h1M18 11h1M5 12h1M18 12h1M5 13h1M18 13h1M5 14h1M18 14h1M5 15h1M18 15h1M5 16h1M18 16h1M5 17h1M18 17h1M5 18h1M18 18h1M5 19h1M18 19h1M5 20h1M18 20h1M5 21h1M18 21h1M5 22h1M18 22h1M5 23h1M18 23h1M5 24h1M18 24h1" />
<path stroke="#039aff" d="M6 0h24M19 7h11" />
<path stroke="#000000" d="M4 1h1M3 3h1M2 4h2M2 5h2M8 5h1M2 6h2M8 6h1M2 7h1M2 8h1M16 8h1M2 9h1M2 10h1M9 10h1M15 10h1M2 11h1M9 11h2M23 11h1M1 12h2M10 12h1M14 12h1M1 13h2M10 13h1M24 13h1M1 14h2M10 14h1M13 14h1M24 14h1M1 15h1M10 15h1M13 15h1M25 15h1M1 16h1M10 16h1M25 16h1M1 17h1M10 17h1M25 17h2M1 18h1M11 18h2M26 18h1M1 19h1M11 19h2M0 20h2M11 20h1M27 20h1M0 21h2M27 21h2M0 22h2M11 22h1M28 22h1M0 23h1M28 23h1M0 24h1M28 24h1" />
<path stroke="#292929" d="M6 1h1" />
<path stroke="#b2b2b2" d="M3 2h1" />
<path stroke="#888888" d="M4 2h1M9 12h1" />
<path stroke="#808080" d="M7 2h1" />
<path stroke="#f2f2f2" d="M11 2h1M11 23h1" />
<path stroke="#010101" d="M7 3h1" />
<path stroke="#a2a2a2" d="M7 4h1" />
<path stroke="#5b5b5b" d="M8 7h1" />
<path stroke="#f9f9f9" d="M11 7h1" />
<path stroke="#202020" d="M17 7h1" />
<path stroke="#c2c2c2" d="M20 8h1" />
<path stroke="#666666" d="M21 8h1" />
<path stroke="#7e7e7e" d="M9 9h1" />
<path stroke="#b4b4b4" d="M15 9h1" />
<path stroke="#aaaaaa" d="M16 9h1" />
<path stroke="#8a8a8a" d="M21 9h1M12 17h1" />
<path stroke="#bdbdbd" d="M22 9h1" />
<path stroke="#646464" d="M22 10h1" />
<path stroke="#7d7d7d" d="M14 11h1" />
<path stroke="#7b7b7b" d="M23 12h1" />
<path stroke="#a1a1a1" d="M14 13h1" />
<path stroke="#fcfcfc" d="M25 14h1" />
<path stroke="#efefef" d="M11 16h1" />
<path stroke="#898989" d="M13 16h1" />
<path stroke="#9d9d9d" d="M26 19h1" />
<path stroke="#262626" d="M11 21h1" />
<path stroke="#eee6ff" d="M0 25h30M0 26h30M0 27h30" />
</svg>